# xmcd
#
# Track frame offsets:
#	150
#	4302
#	22783
#	36652
#	63374
#	80831
#	98947
#	107761
#	138861
#	142089
#	174695
#	178313
#	206539
#	221474
#	240344
#	246161
#	274138
#	284934
#	319884
#
# Disc length: 4568 seconds
# Revision: 3
# Processed by: cddbd v1.5.2PL0 Copyright (c) Steve Scherf et al.
# Submitted via: dBpowerAMP V12.0
#
DISCID=2711d613
DTITLE=Lucinda Williams - Essence - El Rey Theatre, Los Angeles, September 6, 2007 
DYEAR=2007
DGENRE=Folk/Rock
TTITLE0="Hey everybody"
TTITLE1=Lonely Girls
TTITLE2="It's a great opportunity"
TTITLE3=Steal Your Love
TTITLE4=I Envy the Wind
TTITLE5=Blue
TTITLE6="We'll do that after"
TTITLE7=Out of Touch
TTITLE8="That sounded fuckin' great"
TTITLE9=Are You Down?
TTITLE10="Es en Espanol"
TTITLE11=Essence
TTITLE12="Let me introduce the band"
TTITLE13=Reason To Cry
TTITLE14="My heart is still deep"
TTITLE15=Get Right With God
TTITLE16="You know what's really"
TTITLE17=Bus To Baton Rouge
TTITLE18=Broken Butterflies
EXTD=
EXTT0=
EXTT1=
EXTT2=
EXTT3=
EXTT4=
EXTT5=
EXTT6=
EXTT7=
EXTT8=
EXTT9=
EXTT10=
EXTT11=
EXTT12=
EXTT13=
EXTT14=
EXTT15=
EXTT16=
EXTT17=
EXTT18=
PLAYORDER=
